<?xml version="1.0" encoding="UTF-8" standalone="no"?>
<!DOCTYPE svg PUBLIC "-//W3C//DTD SVG 1.1//EN" "http://www.w3.org/Graphics/SVG/1.1/DTD/svg11.dtd">
<svg width="100%" height="100%" viewBox="0 0 532 531" version="1.1" xmlns="http://www.w3.org/2000/svg" xmlns:xlink="http://www.w3.org/1999/xlink" xml:space="preserve" xmlns:serif="http://www.serif.com/" style="fill-rule:evenodd;clip-rule:evenodd;stroke-linejoin:round;stroke-miterlimit:2;">
    <g transform="matrix(0.691095,0,0,0.691095,-21.214,-34.1651)">
        <path d="M209.983,640.256C217.476,615.479 223.728,579.896 232.599,555.577C133.725,415.271 239.396,216.435 400.013,204.734C540.703,194.487 654.741,318.794 641.323,449.81C626.495,594.533 442.781,702.822 296.833,614.251C269.215,621.199 236.776,632.504 209.983,640.256Z" style="fill:url(#_Linear1);fill-rule:nonzero;"/>
    </g>
    <g transform="matrix(0.691095,0,0,0.691095,-21.214,-34.1651)">
        <path d="M148.239,697.339C162.646,650.825 179.344,606.59 194.617,560.941C93.408,383.935 218.654,184.661 388.3,168.112C548.472,152.479 679.801,267.53 680.197,424.547C680.618,590.216 519.941,729.333 339.196,672.789C325.569,668.528 308.695,654.629 292.822,653.688C270.634,652.387 241.563,668.312 219.163,675.508C194.613,683.412 173.266,691.325 148.239,697.339ZM298.28,604.588C444.232,693.163 619,593.816 633.819,449.093C647.242,318.076 542.634,201.508 401.939,211.754C241.331,223.451 144.843,415.177 243.717,555.483C234.849,579.803 226.661,604.365 219.163,629.142C245.964,621.382 270.666,611.527 298.28,604.588Z" style="fill:white;fill-rule:nonzero;"/>
    </g>
    <g transform="matrix(0.691095,0,0,0.691095,-21.214,-34.1651)">
        <path d="M343.238,304.439C351.543,321.811 382.876,368.292 381.171,374.12C379.461,379.97 371.584,388.815 355.569,402.715C375.426,444.696 408.258,473.699 451.052,492.74C465.287,483.322 474.629,469.03 486.51,457.282C511.352,466.996 534.569,478.328 554.711,492.74C556.781,539.67 517.234,557.029 483.783,555.483C413.219,552.231 316.227,463.084 292.826,397.261C278.935,358.203 293.699,307.199 343.238,304.439Z" style="fill:white;fill-rule:nonzero;"/>
    </g>
    <defs>
        <linearGradient id="_Linear1" x1="0" y1="0" x2="1" y2="0" gradientUnits="userSpaceOnUse" gradientTransform="matrix(2.61431e-14,-426.95,426.95,2.61431e-14,419.358,637.98)"><stop offset="0" style="stop-color:rgb(100,216,64);stop-opacity:1"/><stop offset="0.5" style="stop-color:rgb(18,161,0);stop-opacity:1"/><stop offset="1" style="stop-color:rgb(100,216,64);stop-opacity:1"/></linearGradient>
    </defs>
</svg>
